<?xml version="1.0" encoding="UTF-8"?>
<svg id="Layer_1" data-name="Layer 1" xmlns="http://www.w3.org/2000/svg" viewBox="0 0 250 250">
  <defs>
    <style>
      .cls-1 {
        fill: #231f20;
      }

      .cls-1, .cls-2 {
        stroke-width: 0px;
      }

      .cls-2 {
        fill: #fff;
      }
    </style>
  </defs>
  <path class="cls-2" d="M212.44,71.81c-33.66-10.71-68.68-21.16-100.37-20.08-96.38,1.8-99.95,135.94-6.71,146.08,24.41,2.4,47.93-3.37,67.57-15.04,17.22-9.91,30.18-29.67,13.04-40.29-18.15-10.27-43.07-8.11-66.4-8.2"/>
  <path class="cls-1" d="M212.29,72.28c-35.71-7.86-71.59-17.59-108.1-12.6-19.54,2.93-37.79,13.69-47.28,31.29-13.4,23.9-9.64,56.78,10.11,75.97,23.72,22.95,62.51,21.4,90.81,7.87,7.33-3.49,15.48-8.31,19.86-14.8.92-1.34,1.58-2.67,1.87-3.54.32-.92.27-1.22.36-1.07.06.06.12.19.21.19.01,0,.07,0,.04-.06-.03-.39-.56-.86-.82-1.16-.14-.12-.21-.29-.38-.37-.89-.5-1.7-1.17-2.61-1.63-3.36-1.92-6.73-3.34-10.47-4.65-14.33-4.99-31.96-7.28-46.32-12.95,0,0,0-1,0-1,5.41-2.13,10.74-3.8,16.19-5.25,18.53-4.86,38.73-6.7,56.81,2.22,1.68.9,3.47,2.08,4.94,3.24,13.83,10.9,13.23,28.93,3.58,42.21-6.32,9.15-15.49,16.02-25,21.05-12.74,6.87-26.67,11.56-41,13.57-30.59,4.61-64.62-2.59-86.4-26.05-21.78-22.93-28.31-58.28-17.41-87.74,10.6-29.97,37.81-49.65,69.13-51.97,28.15-2.05,55.62,5.37,81.77,14.5,10.26,3.65,20.36,7.62,30.41,11.78,0,0-.3.95-.3.95h0Z"/>
</svg>